<svg width="58" height="65" viewBox="0 0 58 65" fill="none" xmlns="http://www.w3.org/2000/svg">
<path d="M0.51 16.48V48.52C0.51 57.34 4.29 64.45 13.92 64.45C23.55 64.45 27.33 57.34 27.33 48.52V16.48C27.33 7.57 23.55 0.549996 13.92 0.549996C4.29 0.549996 0.51 7.57 0.51 16.48ZM2.49 48.52V16.39C2.49 8.65 5.55 2.34999 13.92 2.34999C22.29 2.34999 25.35 8.65 25.35 16.39V48.52C25.35 56.35 22.29 62.65 13.92 62.65C5.55 62.65 2.49 56.35 2.49 48.52ZM45.6879 4.78V64H47.6679V0.909997H45.7779C44.0679 5.77 40.7379 9.46 35.1579 10V11.8C40.0179 11.26 43.6179 8.92 45.6879 4.78ZM57.8632 56.71H55.8832V64H57.8632V56.71Z" fill="#333333"/>
</svg>
