<svg width="70" height="65" viewBox="0 0 70 65" fill="none" xmlns="http://www.w3.org/2000/svg">
<path d="M0.51 16.48V48.52C0.51 57.34 4.29 64.45 13.92 64.45C23.55 64.45 27.33 57.34 27.33 48.52V16.48C27.33 7.57 23.55 0.549996 13.92 0.549996C4.29 0.549996 0.51 7.57 0.51 16.48ZM2.49 48.52V16.39C2.49 8.65 5.55 2.34999 13.92 2.34999C22.29 2.34999 25.35 8.65 25.35 16.39V48.52C25.35 56.35 22.29 62.65 13.92 62.65C5.55 62.65 2.49 56.35 2.49 48.52ZM47.5779 0.549996C37.8579 0.549996 34.4379 8.11 34.4379 16.84V20.17H36.3279V16.75C36.3279 9.19 39.0279 2.34999 47.4879 2.34999C56.2179 2.34999 58.7379 8.83 58.7379 16.75C58.7379 33.67 34.4379 39.07 34.4379 62.65V64H60.3579V62.11H36.4179V61.75C36.7779 40.06 60.7179 34.21 60.7179 16.66C60.7179 7.75 57.4779 0.549996 47.5779 0.549996ZM69.7284 56.71H67.7484V64H69.7284V56.71Z" fill="#333333"/>
</svg>
