<svg width="70" height="65" viewBox="0 0 70 65" fill="none" xmlns="http://www.w3.org/2000/svg">
<path d="M0.51 16.48V48.52C0.51 57.34 4.29 64.45 13.92 64.45C23.55 64.45 27.33 57.34 27.33 48.52V16.48C27.33 7.57 23.55 0.549996 13.92 0.549996C4.29 0.549996 0.51 7.57 0.51 16.48ZM2.49 48.52V16.39C2.49 8.65 5.55 2.34999 13.92 2.34999C22.29 2.34999 25.35 8.65 25.35 16.39V48.52C25.35 56.35 22.29 62.65 13.92 62.65C5.55 62.65 2.49 56.35 2.49 48.52ZM47.5779 0.549996C37.9479 0.549996 34.3479 7.66 34.3479 16.48V18.28H36.3279V16.39C36.3279 8.65 39.1179 2.34999 47.4879 2.34999C55.8579 2.34999 58.7379 8.65 58.7379 16.48V18.28C58.7379 24.67 54.7779 29.71 48.3879 30.25H43.7079V32.05H48.2979C55.0479 32.41 58.7379 36.82 58.7379 43.66V48.43C58.7379 56.26 55.8579 62.65 47.4879 62.65C39.1179 62.65 36.3279 56.26 36.3279 48.52V45.55H34.3479V48.52C34.3479 57.34 37.9479 64.45 47.5779 64.45C57.2079 64.45 60.7179 57.34 60.7179 48.52V43.66C60.7179 37.54 57.7479 32.59 51.7179 31.06C57.3879 29.26 60.7179 24.04 60.7179 18.01V16.48C60.7179 7.66 57.2079 0.549996 47.5779 0.549996ZM69.8163 56.71H67.8363V64H69.8163V56.71Z" fill="#333333"/>
</svg>
