<?xml version="1.0" encoding="UTF-8" standalone="no"?><!DOCTYPE svg PUBLIC "-//W3C//DTD SVG 1.1//EN" "http://www.w3.org/Graphics/SVG/1.1/DTD/svg11.dtd"><svg width="100%" height="100%" viewBox="0 0 1080 450" version="1.1" xmlns="http://www.w3.org/2000/svg" xmlns:xlink="http://www.w3.org/1999/xlink" xml:space="preserve" style="fill-rule:evenodd;clip-rule:evenodd;stroke-linejoin:round;stroke-miterlimit:1.41421;"><rect id="Artboard1" x="0" y="0" width="1080" height="450" style="fill:none;"/><rect x="0" y="0" width="1080" height="450" style="fill:#dcb8c0;"/><clipPath id="_clip1"><rect x="0" y="0" width="1080" height="450"/></clipPath><g clip-path="url(#_clip1)"><path d="M1330.69,109.185l-59.379,-20.275l21.345,-62.513l59.379,20.275l-21.345,62.513Zm-23.717,69.459l-59.379,-20.275l21.345,-62.513l59.379,20.275l-21.345,62.513Zm-23.717,69.459l-59.379,-20.275l21.345,-62.513l59.379,20.275l-21.345,62.513Zm-23.717,69.46l-59.379,-20.275l21.345,-62.514l59.379,20.275l-21.345,62.514Zm-23.717,69.459l-59.379,-20.275l21.345,-62.513l59.379,20.275l-21.345,62.513Zm-23.717,69.459l-59.379,-20.275l21.345,-62.513l59.379,20.275l-21.345,62.513Zm-23.717,69.459l-59.379,-20.275l21.345,-62.513l59.379,20.275l-21.345,62.513Zm-23.717,69.46l-59.379,-20.275l21.345,-62.514l59.379,20.275l-21.345,62.514Zm-23.717,69.459l-59.379,-20.275l21.345,-62.513l59.379,20.275l-21.345,62.513Zm123.759,-578.202l-59.379,-20.275l21.345,-62.513l59.379,20.275l-21.345,62.513Zm-23.717,69.459l-59.379,-20.275l21.345,-62.513l59.379,20.275l-21.345,62.513Zm-23.717,69.46l-59.379,-20.275l21.345,-62.514l59.379,20.275l-21.345,62.514Zm-23.717,69.459l-59.379,-20.275l21.345,-62.514l59.379,20.276l-21.345,62.513Zm-23.717,69.459l-59.379,-20.275l21.345,-62.513l59.379,20.275l-21.345,62.513Zm-23.717,69.459l-59.379,-20.275l21.345,-62.513l59.379,20.275l-21.345,62.513Zm-23.717,69.46l-59.379,-20.275l21.345,-62.514l59.379,20.275l-21.345,62.514Zm-23.717,69.459l-59.379,-20.275l21.345,-62.514l59.379,20.276l-21.345,62.513Zm-23.717,69.459l-59.379,-20.275l21.345,-62.513l59.379,20.275l-21.345,62.513Zm123.76,-578.202l-59.379,-20.275l21.345,-62.513l59.379,20.275l-21.345,62.513Zm-23.717,69.46l-59.379,-20.276l21.345,-62.513l59.379,20.275l-21.345,62.514Zm-23.718,69.459l-59.378,-20.275l21.345,-62.514l59.379,20.275l-21.346,62.514Zm-23.717,69.459l-59.378,-20.275l21.345,-62.513l59.379,20.275l-21.346,62.513Zm-23.717,69.459l-59.378,-20.275l21.345,-62.513l59.379,20.275l-21.346,62.513Zm-23.717,69.46l-59.378,-20.276l21.345,-62.513l59.379,20.275l-21.346,62.514Zm-23.717,69.459l-59.378,-20.275l21.345,-62.514l59.379,20.275l-21.346,62.514Zm-23.717,69.459l-59.378,-20.275l21.345,-62.513l59.379,20.275l-21.346,62.513Zm-23.717,69.459l-59.378,-20.275l21.345,-62.513l59.379,20.275l-21.346,62.513Zm123.76,-578.202l-59.379,-20.275l21.345,-62.513l59.379,20.275l-21.345,62.513Zm-23.717,69.46l-59.379,-20.275l21.345,-62.514l59.379,20.275l-21.345,62.514Zm-23.717,69.459l-59.379,-20.275l21.345,-62.513l59.379,20.275l-21.345,62.513Zm-23.717,69.459l-59.379,-20.275l21.345,-62.513l59.379,20.275l-21.345,62.513Zm-23.717,69.459l-59.379,-20.275l21.345,-62.513l59.379,20.275l-21.345,62.513Zm-23.717,69.46l-59.379,-20.275l21.345,-62.514l59.379,20.275l-21.345,62.514Zm-23.717,69.459l-59.379,-20.275l21.345,-62.513l59.379,20.275l-21.345,62.513Zm-23.717,69.459l-59.379,-20.275l21.345,-62.513l59.379,20.275l-21.345,62.513Zm-23.717,69.459l-59.379,-20.275l21.345,-62.513l59.379,20.275l-21.345,62.513Zm123.759,-578.201l-59.379,-20.275l21.346,-62.514l59.379,20.275l-21.346,62.514Zm-23.717,69.459l-59.379,-20.275l21.346,-62.514l59.379,20.276l-21.346,62.513Zm-23.717,69.459l-59.379,-20.275l21.346,-62.513l59.379,20.275l-21.346,62.513Zm-23.717,69.459l-59.379,-20.275l21.346,-62.513l59.379,20.275l-21.346,62.513Zm-23.717,69.46l-59.379,-20.275l21.346,-62.514l59.379,20.275l-21.346,62.514Zm-23.717,69.459l-59.379,-20.275l21.346,-62.514l59.379,20.276l-21.346,62.513Zm-23.717,69.459l-59.379,-20.275l21.346,-62.513l59.379,20.275l-21.346,62.513Zm-23.717,69.459l-59.379,-20.275l21.346,-62.513l59.379,20.275l-21.346,62.513Zm-23.717,69.46l-59.379,-20.275l21.346,-62.514l59.379,20.275l-21.346,62.514Zm123.76,-578.202l-59.379,-20.275l21.345,-62.514l59.379,20.275l-21.345,62.514Zm-23.717,69.459l-59.379,-20.275l21.345,-62.513l59.379,20.275l-21.345,62.513Zm-23.717,69.459l-59.379,-20.275l21.345,-62.513l59.379,20.275l-21.345,62.513Zm-23.717,69.46l-59.379,-20.276l21.345,-62.513l59.379,20.275l-21.345,62.514Zm-23.717,69.459l-59.379,-20.275l21.345,-62.514l59.379,20.275l-21.345,62.514Zm-23.717,69.459l-59.379,-20.275l21.345,-62.513l59.379,20.275l-21.345,62.513Zm-23.717,69.459l-59.379,-20.275l21.345,-62.513l59.379,20.275l-21.345,62.513Zm-23.717,69.459l-59.379,-20.275l21.345,-62.513l59.379,20.275l-21.345,62.513Zm-23.717,69.46l-59.379,-20.275l21.345,-62.514l59.379,20.275l-21.345,62.514Zm123.759,-578.202l-59.379,-20.275l21.346,-62.513l59.379,20.275l-21.346,62.513Zm-23.717,69.459l-59.379,-20.275l21.346,-62.513l59.379,20.275l-21.346,62.513Zm-23.717,69.459l-59.379,-20.275l21.346,-62.513l59.379,20.275l-21.346,62.513Zm-23.717,69.46l-59.379,-20.275l21.346,-62.514l59.379,20.275l-21.346,62.514Zm-23.717,69.459l-59.379,-20.275l21.346,-62.513l59.379,20.275l-21.346,62.513Zm-23.717,69.459l-59.379,-20.275l21.346,-62.513l59.379,20.275l-21.346,62.513Zm-23.717,69.459l-59.379,-20.275l21.346,-62.513l59.379,20.275l-21.346,62.513Zm-23.717,69.46l-59.379,-20.275l21.346,-62.514l59.379,20.275l-21.346,62.514Zm-23.717,69.459l-59.379,-20.275l21.346,-62.513l59.379,20.275l-21.346,62.513Zm123.76,-578.202l-59.379,-20.275l21.345,-62.513l59.379,20.275l-21.345,62.513Zm-23.717,69.459l-59.379,-20.275l21.345,-62.513l59.379,20.275l-21.345,62.513Zm-23.717,69.46l-59.379,-20.275l21.345,-62.514l59.379,20.275l-21.345,62.514Zm-23.717,69.459l-59.379,-20.275l21.345,-62.514l59.379,20.276l-21.345,62.513Zm-23.717,69.459l-59.379,-20.275l21.345,-62.513l59.379,20.275l-21.345,62.513Zm-23.717,69.459l-59.379,-20.275l21.345,-62.513l59.379,20.275l-21.345,62.513Zm-23.717,69.46l-59.379,-20.276l21.345,-62.513l59.379,20.275l-21.345,62.514Zm-23.717,69.459l-59.379,-20.275l21.345,-62.514l59.379,20.275l-21.345,62.514Zm-23.717,69.459l-59.379,-20.275l21.345,-62.513l59.379,20.275l-21.345,62.513Zm123.759,-578.202l-59.379,-20.275l21.346,-62.513l59.378,20.275l-21.345,62.513Zm-23.717,69.459l-59.379,-20.275l21.346,-62.513l59.378,20.275l-21.345,62.513Zm-23.717,69.46l-59.379,-20.275l21.346,-62.514l59.378,20.275l-21.345,62.514Zm-23.717,69.459l-59.379,-20.275l21.346,-62.513l59.378,20.275l-21.345,62.513Zm-23.717,69.459l-59.379,-20.275l21.346,-62.513l59.378,20.275l-21.345,62.513Zm-23.717,69.459l-59.379,-20.275l21.346,-62.513l59.378,20.275l-21.345,62.513Zm-23.717,69.46l-59.379,-20.275l21.346,-62.514l59.378,20.275l-21.345,62.514Zm-23.717,69.459l-59.379,-20.275l21.345,-62.513l59.379,20.275l-21.345,62.513Zm-23.717,69.459l-59.379,-20.275l21.345,-62.513l59.379,20.275l-21.345,62.513Zm771.882,-426.7l2.372,-6.946l-26.391,-9.011l11.859,-34.73l-6.598,-2.253l-11.858,34.73l-59.379,-20.275l11.858,-34.73l-6.597,-2.253l-11.859,34.73l-59.379,-20.275l11.859,-34.73l-6.598,-2.253l-11.858,34.73l-59.379,-20.275l11.858,-34.73l-6.598,-2.252l-11.858,34.729l-59.379,-20.275l11.859,-34.729l-6.598,-2.253l-11.859,34.729l-59.378,-20.275l11.858,-34.729l-6.598,-2.253l-11.858,34.73l-59.379,-20.276l11.858,-34.729l-6.597,-2.253l-11.859,34.73l-59.379,-20.275l11.859,-34.73l-6.598,-2.253l-11.858,34.73l-59.379,-20.275l11.858,-34.73l-6.597,-2.253l-11.859,34.73l-59.379,-20.275l11.859,-34.73l-6.598,-2.252l-11.858,34.729l-32.989,-11.264l-2.371,6.946l32.988,11.264l-21.345,62.513l-32.989,-11.264l-2.371,6.946l32.988,11.264l-21.345,62.514l-32.989,-11.264l-2.371,6.946l32.988,11.264l-21.345,62.513l-32.989,-11.264l-2.371,6.946l32.988,11.264l-21.345,62.513l-32.989,-11.264l-2.371,6.946l32.988,11.264l-21.345,62.513l-32.989,-11.264l-2.371,6.946l32.988,11.264l-21.345,62.514l-32.989,-11.264l-2.371,6.946l32.988,11.264l-21.345,62.513l-32.989,-11.264l-2.371,6.946l32.988,11.264l-21.345,62.513l-32.989,-11.264l-2.371,6.946l32.988,11.264l-21.345,62.513l-32.989,-11.264l-2.371,6.946l32.988,11.264l-9.487,27.784l6.598,2.253l9.486,-27.784l59.379,20.275l-9.486,27.784l6.597,2.253l9.487,-27.784l59.379,20.275l-9.487,27.784l6.598,2.252l9.487,-27.783l59.378,20.275l-9.486,27.783l6.597,2.253l9.487,-27.783l59.379,20.275l-9.487,27.783l6.598,2.253l9.487,-27.784l59.379,20.275l-9.487,27.784l6.597,2.253l9.487,-27.784l59.379,20.275l-9.487,27.784l6.598,2.253l9.487,-27.784l59.379,20.275l-9.487,27.784l6.598,2.253l9.486,-27.784l59.379,20.275l-9.487,27.784l6.598,2.252l9.487,-27.783l59.379,20.275l-9.487,27.784l6.598,2.252l9.487,-27.783l26.39,9.011l2.372,-6.946l-26.391,-9.011l21.346,-62.514l26.39,9.012l2.372,-6.946l-26.391,-9.012l21.346,-62.513l26.39,9.011l2.372,-6.946l-26.391,-9.011l21.346,-62.513l26.39,9.011l2.372,-6.946l-26.391,-9.011l21.346,-62.513l26.39,9.011l2.372,-6.946l-26.391,-9.011l21.346,-62.514l26.39,9.012l2.372,-6.946l-26.391,-9.012l21.346,-62.513l26.39,9.011l2.372,-6.946l-26.391,-9.011l21.346,-62.513l26.39,9.011l2.372,-6.946l-26.391,-9.011l21.346,-62.513l26.39,9.011l2.372,-6.946l-26.391,-9.011l21.346,-62.514l26.39,9.012Z" style="fill:#ffd342;fill-rule:nonzero;"/></g></svg>