<svg width="34" height="34" viewBox="0 0 34 34" fill="none" xmlns="http://www.w3.org/2000/svg">
<rect width="34" height="34" fill="#F4F2EE"/>
<path d="M18.5198 15.6583H27.8636C27.8829 15.6585 27.902 15.6545 27.9196 15.6466C27.9373 15.6387 27.953 15.6271 27.9657 15.6125C27.9784 15.5979 27.9879 15.5807 27.9934 15.5621C27.9989 15.5435 28.0004 15.524 27.9977 15.5048C27.6711 13.0999 26.5695 10.8687 24.8613 9.15246C23.153 7.43621 20.9323 6.3294 18.5386 6.00133C18.5195 5.99861 18.5 6.00007 18.4815 6.00562C18.463 6.01116 18.4459 6.02065 18.4314 6.03344C18.4169 6.04624 18.4053 6.06203 18.3974 6.07974C18.3895 6.09744 18.3856 6.11665 18.3857 6.13605V15.5236C18.3857 15.5594 18.3999 15.5936 18.425 15.6189C18.4502 15.6442 18.4843 15.6583 18.5198 15.6583Z" fill="#333333"/>
<path d="M18.3857 18.4754V27.863C18.3856 27.8824 18.3895 27.9016 18.3974 27.9193C18.4053 27.937 18.4169 27.9528 18.4314 27.9656C18.4459 27.9784 18.463 27.9879 18.4815 27.9934C18.5 27.999 18.5195 28.0004 18.5386 27.9977C20.9323 27.6696 23.153 26.5628 24.8613 24.8466C26.5695 23.1303 27.6711 20.8992 27.9977 18.4943C28.0004 18.4751 27.9989 18.4555 27.9934 18.4369C27.9879 18.4183 27.9784 18.4012 27.9657 18.3866C27.953 18.372 27.9373 18.3603 27.9196 18.3524C27.902 18.3445 27.8829 18.3405 27.8636 18.3407H18.5198C18.4843 18.3407 18.4502 18.3549 18.425 18.3802C18.3999 18.4054 18.3857 18.4397 18.3857 18.4754Z" fill="#333333"/>
<path d="M15.716 6.13724C15.7161 6.11797 15.7122 6.09889 15.7044 6.08129C15.6966 6.06369 15.6851 6.04797 15.6708 6.03521C15.6564 6.02244 15.6395 6.01291 15.6211 6.00727C15.6028 6.00163 15.5835 6.00001 15.5645 6.00252C12.9156 6.36287 10.4867 7.67596 8.72794 9.69833C6.96921 11.7207 6 14.3152 6 17.0007C6 19.6863 6.96921 22.2807 8.72794 24.3031C10.4867 26.3255 12.9156 27.6386 15.5645 27.9989C15.5835 28.0014 15.6028 27.9998 15.6211 27.9942C15.6395 27.9885 15.6564 27.979 15.6708 27.9662C15.6851 27.9535 15.6966 27.9377 15.7044 27.9201C15.7122 27.9025 15.7161 27.8835 15.716 27.8642V6.13724Z" fill="#333333"/>
</svg>
