<svg width="24" height="23" viewBox="0 0 24 23" fill="none" xmlns="http://www.w3.org/2000/svg">
<path d="M13.6587 10.01H23.8523C23.8734 10.0102 23.8942 10.006 23.9135 9.99782C23.9327 9.98961 23.9498 9.97754 23.9637 9.96243C23.9776 9.94731 23.9879 9.92952 23.9939 9.91025C24 9.89098 24.0015 9.8707 23.9986 9.8508C23.6423 7.35838 22.4405 5.04596 20.5769 3.26723C18.7133 1.4885 16.2905 0.341396 13.6792 0.00137639C13.6583 -0.00143924 13.6371 7.60284e-05 13.6169 0.00582075C13.5967 0.0115655 13.578 0.0214045 13.5622 0.0346622C13.5464 0.04792 13.5337 0.0642846 13.5251 0.0826384C13.5165 0.100992 13.5122 0.120902 13.5124 0.141005V9.87034C13.5124 9.90738 13.5278 9.94289 13.5552 9.96908C13.5827 9.99526 13.6199 10.01 13.6587 10.01Z" fill="white"/>
<path d="M13.5124 12.9297V22.659C13.5122 22.6791 13.5165 22.699 13.5251 22.7174C13.5337 22.7357 13.5464 22.7521 13.5622 22.7654C13.578 22.7786 13.5967 22.7884 13.6169 22.7942C13.6371 22.7999 13.6583 22.8015 13.6792 22.7986C16.2905 22.4586 18.7133 21.3115 20.5769 19.5328C22.4405 17.7541 23.6423 15.4416 23.9986 12.9492C24.0015 12.9293 24 12.909 23.9939 12.8898C23.9879 12.8705 23.9776 12.8527 23.9637 12.8376C23.9498 12.8225 23.9327 12.8104 23.9135 12.8022C23.8942 12.794 23.8734 12.7898 23.8523 12.79H13.6587C13.6199 12.79 13.5827 12.8048 13.5552 12.8309C13.5278 12.8571 13.5124 12.8926 13.5124 12.9297Z" fill="white"/>
<path d="M10.5997 0.143744C10.5999 0.123775 10.5956 0.104001 10.5871 0.0857587C10.5786 0.067516 10.5661 0.0512277 10.5504 0.0379935C10.5347 0.0247593 10.5163 0.0148878 10.4962 0.00904332C10.4762 0.00319882 10.4552 0.00151855 10.4344 0.00411532C7.54464 0.377591 4.89476 1.73848 2.97606 3.83447C1.05737 5.93047 0 8.61939 0 11.4027C0 14.186 1.05737 16.875 2.97606 18.971C4.89476 21.067 7.54464 22.4278 10.4344 22.8013C10.4552 22.8039 10.4762 22.8022 10.4962 22.7964C10.5163 22.7905 10.5347 22.7807 10.5504 22.7674C10.5661 22.7542 10.5786 22.7379 10.5871 22.7197C10.5956 22.7014 10.5999 22.6817 10.5997 22.6617V0.143744Z" fill="white"/>
</svg>
